<svg xmlns="http://www.w3.org/2000/svg" width="400" height="400"><path fill="#0dc9a0" fill-rule="evenodd" d="M95.373 42.19c-141.791 95.553-22.669 315.112 132.586 244.373 19.47-8.871 23.806-6.37 72.349 41.742 48.848 48.414 52.381 50.435 65.406 37.409 13.026-13.025 11.043-16.52-36.714-64.705l-50.483-50.936 12.742-24.639C338.785 133.528 271.765 24 168 24c-34.218 0-52.386 4.551-72.627 18.19m134.239 21.486c122.574 74.738 9.437 262.024-118.363 195.936C10.289 207.403 53.035 48.06 168 48.06c21.625 0 46.227 6.236 61.612 15.616"/></svg>